<?xml version="1.0" encoding="iso-8859-1"?>
<!-- Generator: Adobe Illustrator 19.0.0, SVG Export Plug-In . SVG Version: 6.00 Build 0)  -->
<svg xmlns="http://www.w3.org/2000/svg" xmlns:xlink="http://www.w3.org/1999/xlink" version="1.1" x="0px" y="0px" viewBox="0 0 512 512" style="enable-background:new 0 0 512 512;" xml:space="preserve" width="40px" height="80px">
<g>
	<g>
		<g>
			<path d="M486.4,162.133h-68.267c-11.11,0-20.497,7.159-24.03,17.067h-18.637v-25.6h68.267c18.825,0,34.133-15.309,34.133-34.133     V34.133C477.867,15.309,462.558,0,443.733,0h-409.6C15.309,0,0,15.309,0,34.133v307.2h59.733c4.71,0,8.533,3.823,8.533,8.533     s-3.823,8.533-8.533,8.533H0v17.067h59.733c4.71,0,8.533,3.823,8.533,8.533s-3.823,8.533-8.533,8.533H0V409.6h59.733     c4.71,0,8.533,3.823,8.533,8.533s-3.823,8.533-8.533,8.533H0v17.067h59.733c4.71,0,8.533,3.823,8.533,8.533     c0,4.71-3.823,8.533-8.533,8.533H0v17.067C0,496.691,15.309,512,34.133,512h409.6c18.825,0,34.133-15.309,34.133-34.133     s-15.309-34.133-34.133-34.133h-94.746c7.629-4.804,14.643-10.462,20.873-16.913c1.485-0.034,2.953-0.102,4.326-0.085     c2.065,0.026,4.096,0.06,6.101,0.06c16.29,0,30.729-1.886,44.689-20.634c13.099-17.579,11.341-30.251,7.561-37.786     c-5.009-9.975-16.299-16.29-31.497-17.997c0-0.171,0.026-0.341,0.026-0.512c0-4.71-3.823-8.533-8.533-8.533h-204.8     c-4.71,0-8.533,3.823-8.533,8.533c0,39.543,20.855,74.223,52.079,93.867h-60.612c-9.412,0-17.067-7.654-17.067-17.067v-256     c0-9.412,7.654-17.067,17.067-17.067H204.8v42.667c0,14.114,11.486,25.6,25.6,25.6H256v8.533c0,4.71,3.823,8.533,8.533,8.533     c4.71,0,8.533-3.823,8.533-8.533v-8.533H307.2v8.533c0,4.71,3.823,8.533,8.533,8.533s8.533-3.823,8.533-8.533v-8.533h25.6     c14.114,0,25.6-11.486,25.6-25.6h18.637c3.533,9.907,12.919,17.067,24.03,17.067H486.4c14.114,0,25.6-11.486,25.6-25.6     S500.514,162.133,486.4,162.133z M388.599,400.742c0.538-1.024,1.007-2.082,1.51-3.123c1.101-2.295,2.159-4.617,3.098-6.997     c0.444-1.109,0.828-2.236,1.229-3.354c0.879-2.432,1.69-4.89,2.398-7.398c0.29-1.041,0.546-2.099,0.811-3.157     c0.666-2.654,1.237-5.333,1.707-8.064c0.077-0.435,0.205-0.853,0.273-1.289c8.815,1.101,15.445,4.267,17.655,8.67     c3.106,6.187-2.423,15.147-5.99,19.942c-8.559,11.494-15.642,13.517-27.836,13.739c0.35-0.546,0.623-1.135,0.964-1.681     C385.894,405.649,387.311,403.234,388.599,400.742z M196.651,358.4h186.871c-0.205,2.27-0.478,4.514-0.845,6.741     c-0.017,0.111-0.026,0.222-0.043,0.333c-0.333,1.988-0.768,3.942-1.229,5.897c-0.162,0.708-0.316,1.425-0.503,2.133     c-0.444,1.732-0.964,3.439-1.51,5.137c-0.282,0.879-0.572,1.749-0.888,2.611c-0.563,1.604-1.169,3.2-1.826,4.77     c-0.358,0.853-0.742,1.681-1.126,2.526c-0.725,1.596-1.459,3.183-2.278,4.736c-0.29,0.563-0.623,1.101-0.93,1.664     c-3.371,6.11-7.415,11.904-12.169,17.246c-0.034,0.043-0.043,0.094-0.077,0.137c-17.195,19.243-42.18,31.403-69.965,31.403     C241.246,443.733,200.977,406.178,196.651,358.4z M76.8,119.467c-23.526,0-42.667-19.14-42.667-42.667     c0-23.526,19.14-42.667,42.667-42.667c23.526,0,42.667,19.14,42.667,42.667C119.467,100.326,100.326,119.467,76.8,119.467z      M179.2,119.467c-23.526,0-42.667-19.14-42.667-42.667c0-23.526,19.14-42.667,42.667-42.667s42.667,19.14,42.667,42.667     C221.867,100.326,202.726,119.467,179.2,119.467z M358.4,196.267c0,4.702-3.831,8.533-8.533,8.533h-34.133h-51.2H230.4     c-4.702,0-8.533-3.831-8.533-8.533V153.6H358.4V196.267z" fill="#382722"/>
			<path d="M273.067,264.533c0-4.71-3.823-8.533-8.533-8.533c-4.71,0-8.533,3.823-8.533,8.533v8.533c0,4.71,3.823,8.533,8.533,8.533     c4.71,0,8.533-3.823,8.533-8.533V264.533z" fill="#382722"/>
			<path d="M264.533,298.667c-4.71,0-8.533,3.823-8.533,8.533v8.533c0,4.71,3.823,8.533,8.533,8.533c4.71,0,8.533-3.823,8.533-8.533     V307.2C273.067,302.49,269.244,298.667,264.533,298.667z" fill="#382722"/>
			<path d="M324.267,264.533c0-4.71-3.823-8.533-8.533-8.533s-8.533,3.823-8.533,8.533v8.533c0,4.71,3.823,8.533,8.533,8.533     s8.533-3.823,8.533-8.533V264.533z" fill="#382722"/>
			<path d="M315.733,298.667c-4.71,0-8.533,3.823-8.533,8.533v8.533c0,4.71,3.823,8.533,8.533,8.533s8.533-3.823,8.533-8.533V307.2     C324.267,302.49,320.444,298.667,315.733,298.667z" fill="#382722"/>
			<path d="M76.8,51.2c-14.114,0-25.6,11.486-25.6,25.6s11.486,25.6,25.6,25.6s25.6-11.486,25.6-25.6S90.914,51.2,76.8,51.2z" fill="#382722"/>
			<path d="M179.2,51.2c-14.114,0-25.6,11.486-25.6,25.6s11.486,25.6,25.6,25.6s25.6-11.486,25.6-25.6S193.314,51.2,179.2,51.2z" fill="#382722"/>
		</g>
	</g>
</g>
<g>
</g>
<g>
</g>
<g>
</g>
<g>
</g>
<g>
</g>
<g>
</g>
<g>
</g>
<g>
</g>
<g>
</g>
<g>
</g>
<g>
</g>
<g>
</g>
<g>
</g>
<g>
</g>
<g>
</g>
</svg>
