<?xml version="1.0" encoding="iso-8859-1"?>
<!-- Generator: Adobe Illustrator 17.1.0, SVG Export Plug-In . SVG Version: 6.00 Build 0)  -->
<!DOCTYPE svg PUBLIC "-//W3C//DTD SVG 1.1//EN" "http://www.w3.org/Graphics/SVG/1.1/DTD/svg11.dtd">
<svg xmlns="http://www.w3.org/2000/svg" xmlns:xlink="http://www.w3.org/1999/xlink" version="1.1" x="0px" y="0px" viewBox="0 0 200 200" style="enable-background:new 0 0 200 200;" xml:space="preserve" width="40px" height="80px">
<path d="M171.914,45.078H148.5V17.029c0-4.143-3.357-7.5-7.5-7.5H53.5v53.85C59.979,64.24,65,69.789,65,76.5v23  c0,7.306-5.944,13.25-13.25,13.25h-11.5c-7.306,0-13.25-5.944-13.25-13.25v-23c0-6.711,5.021-12.26,11.5-13.121V9.529h-31  c-4.143,0-7.5,3.357-7.5,7.5v165.941c0,4.143,3.357,7.5,7.5,7.5H141c4.143,0,7.5-3.357,7.5-7.5V153.25h23.414  c15.486,0,28.086-12.6,28.086-28.086v-52C200,57.678,187.4,45.078,171.914,45.078z M185,125.164c0,7.216-5.87,13.086-13.086,13.086  H149V60.078h22.914c7.216,0,13.086,5.87,13.086,13.086V125.164z" fill="#382722"/>
<g>
</g>
<g>
</g>
<g>
</g>
<g>
</g>
<g>
</g>
<g>
</g>
<g>
</g>
<g>
</g>
<g>
</g>
<g>
</g>
<g>
</g>
<g>
</g>
<g>
</g>
<g>
</g>
<g>
</g>
</svg>
